<svg width="30" height="30" viewBox="0 0 30 30" fill="none" xmlns="http://www.w3.org/2000/svg">
<path fill-rule="evenodd" clip-rule="evenodd" d="M27.5 15C27.5 21.9038 21.9038 27.5 15 27.5C8.09625 27.5 2.5 21.9038 2.5 15C2.5 8.09625 8.09625 2.5 15 2.5C21.9038 2.5 27.5 8.09625 27.5 15ZM8.125 15C8.125 14.8342 8.19085 14.6753 8.30806 14.5581C8.42527 14.4408 8.58424 14.375 8.75 14.375H14.375V8.75C14.375 8.58424 14.4408 8.42527 14.5581 8.30806C14.6753 8.19085 14.8342 8.125 15 8.125C15.1658 8.125 15.3247 8.19085 15.4419 8.30806C15.5592 8.42527 15.625 8.58424 15.625 8.75V14.375H21.25C21.4158 14.375 21.5747 14.4408 21.6919 14.5581C21.8092 14.6753 21.875 14.8342 21.875 15C21.875 15.1658 21.8092 15.3247 21.6919 15.4419C21.5747 15.5592 21.4158 15.625 21.25 15.625H15.625V21.25C15.625 21.4158 15.5592 21.5747 15.4419 21.6919C15.3247 21.8092 15.1658 21.875 15 21.875C14.8342 21.875 14.6753 21.8092 14.5581 21.6919C14.4408 21.5747 14.375 21.4158 14.375 21.25V15.625H8.75C8.58424 15.625 8.42527 15.5592 8.30806 15.4419C8.19085 15.3247 8.125 15.1658 8.125 15Z" fill="black" fill-opacity="0.3"/>
<path fill-rule="evenodd" clip-rule="evenodd" d="M15 26.25C21.2131 26.25 26.25 21.2131 26.25 15C26.25 8.78688 21.2131 3.75 15 3.75C8.78688 3.75 3.75 8.78688 3.75 15C3.75 21.2131 8.78688 26.25 15 26.25ZM6.875 15C6.875 14.5027 7.07254 14.0258 7.42418 13.6742C7.77581 13.3225 8.25272 13.125 8.75 13.125H13.125V8.75C13.125 8.25272 13.3225 7.77581 13.6742 7.42418C14.0258 7.07254 14.5027 6.875 15 6.875C15.4973 6.875 15.9742 7.07254 16.3258 7.42418C16.6775 7.77581 16.875 8.25272 16.875 8.75V13.125H21.25C21.7473 13.125 22.2242 13.3225 22.5758 13.6742C22.9275 14.0258 23.125 14.5027 23.125 15C23.125 15.4973 22.9275 15.9742 22.5758 16.3258C22.2242 16.6775 21.7473 16.875 21.25 16.875H16.875V21.25C16.875 21.7473 16.6775 22.2242 16.3258 22.5758C15.9742 22.9275 15.4973 23.125 15 23.125C14.5027 23.125 14.0258 22.9275 13.6742 22.5758C13.3225 22.2242 13.125 21.7473 13.125 21.25V16.875H8.75C8.25272 16.875 7.77581 16.6775 7.42418 16.3258C7.07254 15.9742 6.875 15.4973 6.875 15ZM8.75 14.375C8.58424 14.375 8.42527 14.4408 8.30806 14.5581C8.19085 14.6753 8.125 14.8342 8.125 15C8.125 15.1658 8.19085 15.3247 8.30806 15.4419C8.42527 15.5592 8.58424 15.625 8.75 15.625H14.375V21.25C14.375 21.4158 14.4408 21.5747 14.5581 21.6919C14.6753 21.8092 14.8342 21.875 15 21.875C15.1658 21.875 15.3247 21.8092 15.4419 21.6919C15.5592 21.5747 15.625 21.4158 15.625 21.25V15.625H21.25C21.4158 15.625 21.5747 15.5592 21.6919 15.4419C21.8092 15.3247 21.875 15.1658 21.875 15C21.875 14.8342 21.8092 14.6753 21.6919 14.5581C21.5747 14.4408 21.4158 14.375 21.25 14.375H15.625V8.75C15.625 8.58424 15.5592 8.42527 15.4419 8.30806C15.3247 8.19085 15.1658 8.125 15 8.125C14.8342 8.125 14.6753 8.19085 14.5581 8.30806C14.4408 8.42527 14.375 8.58424 14.375 8.75V14.375H8.75ZM15 27.5C21.9038 27.5 27.5 21.9038 27.5 15C27.5 8.09625 21.9038 2.5 15 2.5C8.09625 2.5 2.5 8.09625 2.5 15C2.5 21.9038 8.09625 27.5 15 27.5Z" fill="black" fill-opacity="0.3"/>
</svg>
