<svg width="30" height="30" viewBox="0 0 30 30" fill="none" xmlns="http://www.w3.org/2000/svg">
<circle cx="15" cy="15" r="15" fill="white"/>
<circle cx="15" cy="15" r="14.5" stroke="black" stroke-opacity="0.6"/>
<path d="M15 15.7817C16.8636 15.7817 18.5583 16.3246 19.8051 17.0898C20.4273 17.4715 20.9593 17.9222 21.3436 18.4119C21.7216 18.8931 22 19.4689 22 20.0846C22 20.7457 21.6803 21.2667 21.2199 21.6384C20.7843 21.9904 20.2096 22.2236 19.599 22.3863C18.3717 22.7125 16.7337 22.8228 15 22.8228C13.2663 22.8228 11.6283 22.7133 10.401 22.3863C9.79044 22.2236 9.21567 21.9904 8.78011 21.6384C8.31889 21.266 8 20.7457 8 20.0846C8 19.4689 8.27844 18.8931 8.65644 18.4112C9.04067 17.9222 9.57189 17.4723 10.1949 17.089C11.4417 16.3254 13.1372 15.7817 15 15.7817ZM15 7.17578C16.0314 7.17578 17.0206 7.58791 17.7499 8.32151C18.4792 9.05511 18.8889 10.0501 18.8889 11.0875C18.8889 12.125 18.4792 13.12 17.7499 13.8536C17.0206 14.5872 16.0314 14.9993 15 14.9993C13.9686 14.9993 12.9794 14.5872 12.2501 13.8536C11.5208 13.12 11.1111 12.125 11.1111 11.0875C11.1111 10.0501 11.5208 9.05511 12.2501 8.32151C12.9794 7.58791 13.9686 7.17578 15 7.17578Z" fill="black" fill-opacity="0.6"/>
</svg>
